<svg width="40" height="40" viewBox="0 0 40 40" fill="none" xmlns="http://www.w3.org/2000/svg">
<path fill-rule="evenodd" clip-rule="evenodd" d="M20.3966 33.1426C22.438 32.1223 31.6666 27.0287 31.6666 18.3334C31.6666 11.8901 26.4433 6.66675 20 6.66675C13.5567 6.66675 8.33331 11.8901 8.33331 18.3334C8.33331 27.0287 17.562 32.1223 19.6034 33.1426C19.8582 33.27 20.1418 33.27 20.3966 33.1426ZM20 23.3334C22.7614 23.3334 25 21.0948 25 18.3334C25 15.572 22.7614 13.3334 20 13.3334C17.2386 13.3334 15 15.572 15 18.3334C15 21.0948 17.2386 23.3334 20 23.3334Z" fill="#333333"/>
<path d="M20.3966 33.1426L20.6648 33.6793L20.3966 33.1426ZM19.6034 33.1426L19.3351 33.6793L19.6034 33.1426ZM31.0666 18.3334C31.0666 22.4549 28.8808 25.7567 26.3792 28.1857C23.8794 30.6127 21.123 32.1088 20.1283 32.6059L20.6648 33.6793C21.7116 33.1561 24.5902 31.5952 27.2151 29.0466C29.8381 26.4998 32.2666 22.9072 32.2666 18.3334H31.0666ZM20 7.26675C26.1119 7.26675 31.0666 12.2215 31.0666 18.3334H32.2666C32.2666 11.5587 26.7747 6.06675 20 6.06675V7.26675ZM8.93331 18.3334C8.93331 12.2215 13.888 7.26675 20 7.26675V6.06675C13.2253 6.06675 7.73331 11.5587 7.73331 18.3334H8.93331ZM19.8716 32.6059C18.877 32.1088 16.1205 30.6127 13.6208 28.1857C11.1191 25.7567 8.93331 22.4549 8.93331 18.3334H7.73331C7.73331 22.9072 10.1618 26.4998 12.7849 29.0466C15.4098 31.5952 18.2884 33.1561 19.3351 33.6793L19.8716 32.6059ZM20.1283 32.6059C20.0424 32.6489 19.9576 32.6489 19.8716 32.6059L19.3351 33.6793C19.7588 33.8911 20.2411 33.8911 20.6648 33.6793L20.1283 32.6059ZM24.4 18.3334C24.4 20.7635 22.43 22.7334 20 22.7334V23.9334C23.0928 23.9334 25.6 21.4262 25.6 18.3334H24.4ZM20 13.9334C22.43 13.9334 24.4 15.9034 24.4 18.3334H25.6C25.6 15.2406 23.0928 12.7334 20 12.7334V13.9334ZM15.6 18.3334C15.6 15.9034 17.5699 13.9334 20 13.9334V12.7334C16.9072 12.7334 14.4 15.2406 14.4 18.3334H15.6ZM20 22.7334C17.5699 22.7334 15.6 20.7635 15.6 18.3334H14.4C14.4 21.4262 16.9072 23.9334 20 23.9334V22.7334Z" fill="#333333"/>
</svg>
