<?xml version="1.0" standalone="no"?>
<!DOCTYPE svg PUBLIC "-//W3C//DTD SVG 20010904//EN"
 "http://www.w3.org/TR/2001/REC-SVG-20010904/DTD/svg10.dtd">
<svg version="1.0" xmlns="http://www.w3.org/2000/svg"
 width="502.000000pt" height="502.000000pt" viewBox="0 0 502.000000 502.000000"
 preserveAspectRatio="xMidYMid meet">
<metadata>
Created by potrace 1.14, written by Peter Selinger 2001-2017
</metadata>
<g transform="translate(0.000000,502.000000) scale(0.100000,-0.100000)"
fill="#000000" stroke="none">
<path d="M2429 5006 c-2 -2 -47 -7 -99 -11 -52 -4 -111 -9 -130 -10 -19 -2
-66 -6 -105 -9 -38 -3 -90 -8 -115 -11 -60 -6 -150 -14 -235 -21 -38 -3 -90
-7 -115 -9 -25 -2 -76 -7 -115 -10 -38 -3 -90 -7 -115 -10 -25 -3 -79 -7 -120
-10 -113 -8 -130 -13 -131 -38 -2 -60 -42 -213 -75 -290 -80 -182 -200 -281
-356 -294 l-67 -6 -15 -41 c-8 -23 -28 -80 -45 -128 l-32 -86 46 -49 c59 -62
128 -202 159 -323 70 -265 68 -625 -5 -1035 -11 -60 -23 -126 -27 -145 -5 -19
-5 -53 -1 -75 4 -22 10 -58 13 -80 50 -331 194 -713 393 -1040 193 -316 472
-628 794 -887 173 -139 392 -284 541 -358 l46 -23 89 48 c174 93 472 305 633
450 65 58 268 262 319 320 308 350 541 768 656 1175 33 117 31 108 60 262 31
160 31 165 12 268 -9 47 -19 101 -22 120 -3 19 -10 60 -15 90 -34 199 -44 547
-21 726 30 226 111 427 212 524 33 31 35 17 -28 191 l-34 96 -67 5 c-159 12
-288 124 -365 319 -28 70 -53 167 -62 240 -3 24 -8 45 -11 48 -6 6 -11 7 -119
16 -49 4 -103 8 -120 10 -16 1 -70 5 -120 10 -49 4 -103 9 -120 11 -16 2 -70
6 -120 9 -49 4 -99 8 -110 10 -11 1 -65 6 -120 10 -55 4 -107 9 -115 10 -9 2
-60 6 -115 10 -55 4 -109 9 -120 12 -28 6 -261 14 -266 9z m296 -70 c17 -2 66
-7 110 -10 44 -4 98 -9 120 -11 22 -3 74 -7 115 -10 41 -3 91 -7 110 -9 38 -4
143 -13 255 -22 39 -3 84 -7 100 -9 17 -2 68 -7 115 -11 47 -3 96 -8 110 -9
14 -2 34 -4 45 -4 18 -1 23 -12 34 -73 7 -40 22 -98 33 -128 11 -30 20 -59 22
-65 6 -27 62 -127 94 -170 84 -111 211 -180 338 -185 6 0 26 -41 44 -90 35
-98 35 -91 -18 -150 -45 -50 -126 -230 -147 -328 -3 -12 -7 -32 -10 -44 -46
-204 -51 -521 -14 -783 5 -38 12 -86 14 -105 5 -38 15 -103 21 -135 2 -11 7
-33 10 -50 3 -16 9 -48 14 -69 5 -22 7 -42 5 -45 -2 -4 -6 -30 -10 -60 -4 -30
-8 -61 -10 -70 -28 -133 -41 -187 -69 -283 -115 -389 -306 -743 -580 -1073
-120 -145 -346 -369 -471 -468 -11 -9 -40 -32 -65 -53 -116 -95 -366 -260
-473 -312 -59 -29 -68 -27 -217 63 -137 83 -376 254 -446 320 -6 5 -35 30 -64
55 -68 57 -255 244 -341 341 -366 411 -630 969 -705 1489 -3 19 -7 40 -9 46
-2 6 0 29 5 50 5 22 11 55 15 74 3 19 10 58 15 85 9 48 11 62 25 170 4 28 9
61 11 75 22 144 22 486 0 620 -3 14 -7 43 -11 65 -24 160 -100 344 -181 439
-19 22 -34 43 -34 47 0 4 14 46 30 92 l31 84 66 11 c92 15 168 55 238 126 92
92 170 258 196 414 10 62 15 72 33 73 12 0 28 2 36 3 8 2 64 7 125 11 60 4
118 9 130 10 11 2 54 6 95 10 41 3 93 8 115 10 22 2 78 6 125 10 47 3 96 8
110 10 14 2 68 7 120 10 52 4 102 8 110 10 9 2 60 6 115 10 55 3 102 8 104 11
5 5 261 -4 316 -10z"/>
<path d="M2449 4926 c-2 -2 -51 -7 -109 -11 -57 -4 -111 -8 -120 -10 -8 -1
-53 -6 -100 -10 -47 -3 -98 -8 -115 -9 -16 -2 -68 -6 -115 -10 -47 -4 -101 -9
-120 -11 -19 -2 -69 -7 -110 -10 -41 -3 -95 -8 -120 -10 -25 -3 -74 -7 -110
-10 -157 -12 -195 -17 -202 -23 -3 -4 -9 -23 -12 -42 -21 -127 -95 -309 -152
-380 -90 -110 -209 -178 -333 -192 -20 -3 -28 -14 -47 -68 -30 -83 -29 -85 5
-129 106 -134 174 -332 199 -576 13 -130 7 -433 -12 -580 -2 -16 -7 -52 -10
-80 -6 -43 -11 -74 -30 -185 -1 -8 -8 -48 -16 -87 -12 -64 -11 -84 5 -170 133
-735 522 -1359 1172 -1884 112 -91 363 -259 457 -307 l60 -30 50 25 c281 141
680 462 933 752 21 24 49 56 61 70 13 14 61 76 106 136 229 307 394 642 487
993 17 63 33 126 35 141 2 14 9 47 15 73 13 56 17 171 7 213 -6 28 -30 164
-42 245 -3 19 -8 62 -12 95 -3 33 -8 71 -11 85 -2 14 -6 115 -7 225 -5 318 31
527 125 717 31 63 79 137 102 156 12 10 10 22 -12 86 -15 41 -29 77 -31 79 -3
3 -27 8 -55 11 -60 8 -155 51 -209 95 -56 45 -121 133 -160 215 -45 96 -64
154 -82 261 -3 17 -9 33 -12 37 -4 3 -43 9 -87 13 -44 3 -96 8 -115 10 -19 3
-71 7 -115 10 -44 3 -91 7 -105 10 -14 2 -68 7 -120 11 -52 3 -108 8 -125 10
-16 2 -64 6 -105 10 -41 3 -91 8 -110 9 -19 2 -77 6 -128 10 -51 3 -103 8
-115 11 -30 6 -223 15 -228 10z m230 -81 c20 -3 70 -7 111 -10 41 -3 95 -7
120 -10 25 -2 74 -7 110 -10 36 -3 85 -8 110 -10 49 -5 127 -12 230 -20 36 -3
83 -7 105 -10 22 -2 72 -7 110 -10 178 -14 172 -12 179 -57 9 -56 42 -151 78
-228 90 -189 226 -304 410 -344 19 -4 30 -16 38 -41 10 -31 9 -38 -19 -79 -83
-121 -155 -316 -176 -481 -4 -27 -11 -70 -15 -95 -9 -46 -5 -465 4 -535 3 -22
8 -60 11 -85 3 -25 8 -63 11 -85 2 -22 16 -101 29 -175 14 -74 23 -146 20
-160 -2 -14 -6 -38 -9 -55 -2 -16 -12 -64 -21 -105 -9 -41 -18 -82 -20 -90
-45 -205 -152 -475 -279 -700 -139 -249 -292 -447 -526 -680 -225 -226 -411
-373 -657 -519 l-117 -70 -46 26 c-299 174 -491 322 -740 572 -249 250 -392
442 -563 753 -100 181 -206 481 -256 723 -31 151 -32 160 -5 305 13 74 26 158
29 185 3 28 8 61 10 75 20 127 27 520 11 650 -25 209 -94 414 -180 535 -39 55
-41 62 -25 98 8 18 26 29 72 41 192 54 338 208 417 441 17 47 33 104 36 126 6
33 10 39 33 41 14 0 31 2 36 3 6 0 52 5 103 9 52 4 103 9 115 11 12 2 60 7
107 10 131 11 243 20 340 30 19 2 71 6 115 10 44 4 96 8 115 10 19 2 73 7 120
10 47 4 86 9 88 10 5 5 187 -3 231 -10z"/>
<path d="M2422 4537 c-39 -17 -46 -76 -13 -110 14 -14 34 -18 100 -18 86 0
107 8 121 46 10 28 -8 73 -33 81 -33 11 -150 12 -175 1z"/>
<path d="M2459 4372 c-7 -70 -6 -78 22 -100 l29 -24 28 24 c24 19 29 31 28 65
l-1 42 -52 0 c-29 0 -53 -3 -54 -7z"/>
<path d="M2450 4200 c0 -27 4 -50 8 -50 5 0 18 -9 29 -19 20 -19 21 -19 52 2
27 19 31 28 31 70 0 52 -12 59 -41 26 l-18 -21 -18 21 c-30 35 -43 26 -43 -29z"/>
<path d="M2444 4053 c0 -66 1 -69 32 -90 l33 -23 35 23 c36 22 36 22 32 85 -2
35 -7 66 -10 69 -3 4 -16 -3 -29 -15 -23 -21 -23 -21 -52 -2 -17 11 -32 20
-35 20 -3 0 -5 -30 -6 -67z"/>
<path d="M2439 3913 c-1 -21 -2 -51 -3 -68 -1 -24 6 -35 34 -54 l35 -24 41 22
42 23 -5 66 c-3 37 -6 69 -8 71 -2 2 -18 -7 -34 -19 l-31 -21 -29 20 c-16 12
-32 21 -35 21 -3 0 -6 -17 -7 -37z"/>
<path d="M2430 3700 c0 -54 -3 -70 -14 -70 -21 0 -30 -20 -17 -33 14 -14 188
-18 213 -5 20 9 13 38 -8 38 -11 0 -14 17 -14 70 0 78 -8 85 -54 49 l-26 -20
-26 20 c-46 36 -54 29 -54 -49z"/>
<path d="M2280 3589 c-52 -12 -83 -16 -225 -34 -71 -9 -146 -18 -165 -20 -133
-17 -166 -17 -178 -3 -7 9 -23 13 -43 10 -38 -6 -55 -36 -40 -75 9 -22 17 -27
45 -27 18 0 39 6 45 14 17 20 1570 20 1578 0 6 -15 60 -19 81 -5 16 10 19 68
5 82 -16 16 -74 14 -84 -3 -7 -12 -20 -13 -96 -2 -48 6 -119 15 -158 18 -90 9
-271 35 -310 45 -22 5 -39 2 -64 -13 -29 -17 -52 -20 -165 -20 -117 0 -136 2
-162 20 -23 16 -36 19 -64 13z"/>
<path d="M2394 3386 c-1 -12 -4 -95 -8 -186 -12 -278 -13 -301 -31 -765 -3
-60 -7 -164 -10 -230 -12 -294 -16 -377 -20 -490 -7 -201 -15 -385 -20 -486
-5 -92 -4 -101 30 -190 19 -52 39 -103 44 -114 22 -47 121 -315 121 -327 0
-33 27 28 120 271 l100 263 -5 122 c-3 66 -7 168 -10 226 -5 109 -12 287 -20
495 -3 66 -7 179 -10 250 -6 132 -9 216 -20 495 -3 85 -8 191 -10 235 -2 44
-7 161 -10 260 -4 99 -9 182 -12 185 -3 3 -55 5 -117 6 -107 1 -112 0 -112
-20z m157 -69 c3 -4 5 -34 4 -65 -2 -31 -6 -203 -10 -382 -4 -179 -9 -365 -10
-415 -14 -557 -18 -758 -18 -803 1 -29 -1 -51 -4 -48 -3 3 -7 54 -8 113 -3
114 -14 538 -20 783 -3 124 -16 610 -19 765 -1 28 2 52 6 55 12 9 72 7 79 -3z"/>
<path d="M1672 3300 c-6 -14 -41 -90 -80 -170 -38 -80 -81 -170 -95 -200 -50
-109 -106 -227 -162 -345 -79 -165 -79 -165 -45 -218 23 -36 44 -53 102 -82
241 -119 648 -54 706 113 9 26 0 50 -85 228 -52 110 -103 217 -113 239 -20 43
-154 327 -194 410 -23 49 -24 49 -34 25z m98 -290 c40 -96 78 -188 85 -205 8
-16 30 -70 50 -120 21 -49 43 -103 50 -120 25 -55 45 -107 45 -116 0 -5 -141
-9 -315 -9 -173 0 -315 4 -315 8 0 7 132 333 165 407 7 17 38 91 68 165 76
187 79 193 88 178 4 -7 39 -92 79 -188z"/>
<path d="M3326 3284 c-34 -72 -84 -178 -150 -318 -36 -76 -66 -139 -66 -141 0
-1 -39 -83 -86 -181 -47 -99 -88 -194 -91 -211 -7 -43 24 -90 86 -129 51 -33
67 -39 166 -63 66 -16 246 -21 300 -8 152 36 239 87 269 158 17 41 33 2 -153
394 -34 72 -86 179 -114 240 -29 60 -72 152 -98 204 l-45 94 -18 -39z m193
-484 l148 -355 -315 -3 c-173 -1 -317 0 -319 2 -4 3 97 256 184 461 41 96 48
114 89 217 l39 96 14 -31 c7 -18 79 -192 160 -387z"/>
</g>
</svg>
