<svg width="70" height="70" viewBox="0 0 70 70" fill="none" xmlns="http://www.w3.org/2000/svg">
<path d="M55.3158 18.7415L35.9848 10.4568C35.3559 10.1872 34.6441 10.1872 34.0152 10.4568L14.6842 18.7415C13.6601 19.1804 13.0501 20.2439 13.1883 21.3494L15.7179 41.5867C15.9538 43.4737 16.8977 45.2006 18.3586 46.4181L33.3995 58.9522C34.3267 59.7248 35.6733 59.7248 36.6005 58.9522L35.6402 57.7998L36.6005 58.9522L51.6414 46.4181C53.1023 45.2006 54.0462 43.4737 54.2821 41.5867L56.8117 21.3494C56.9499 20.2439 56.3399 19.1804 55.3158 18.7415Z" stroke="#0D1013" stroke-width="3" stroke-linecap="round"/>
<path d="M26.25 35L34.5687 43.3187C34.7919 43.5418 35.1633 43.5051 35.3383 43.2425L46.6667 26.25" stroke="#0D1013" stroke-width="3" stroke-linecap="round"/>
</svg>
