<svg width="70" height="70" viewBox="0 0 70 70" fill="none" xmlns="http://www.w3.org/2000/svg">
<path d="M11.6667 30.25C11.6667 28.3644 11.6667 27.4216 12.2524 26.8358C12.8382 26.25 13.781 26.25 15.6667 26.25H54.3333C56.2189 26.25 57.1617 26.25 57.7475 26.8358C58.3333 27.4216 58.3333 28.3644 58.3333 30.25V55.25C58.3333 58.0784 58.3333 59.4926 57.4546 60.3713C56.576 61.25 55.1617 61.25 52.3333 61.25H17.6667C14.8382 61.25 13.424 61.25 12.5453 60.3713C11.6667 59.4926 11.6667 58.0784 11.6667 55.25V30.25Z" stroke="#0D1013" stroke-width="3"/>
<path d="M46.6666 23.3333V18.75C46.6666 14.036 46.6666 11.6789 45.2022 10.2145C43.7377 8.75 41.3807 8.75 36.6666 8.75H33.3333C28.6193 8.75 26.2622 8.75 24.7978 10.2145C23.3333 11.6789 23.3333 14.036 23.3333 18.75V23.3333" stroke="#0D1013" stroke-width="3" stroke-linecap="round"/>
<ellipse cx="35" cy="43.75" rx="5.83333" ry="5.83333" fill="#0D1013"/>
</svg>
