<svg width="66" height="83" viewBox="0 0 66 83" fill="none" xmlns="http://www.w3.org/2000/svg">
<path fill-rule="evenodd" clip-rule="evenodd" d="M45.696 26.1806H32.9576H32.8402H20.1017C20.0202 26.4499 19.7693 26.6473 19.4743 26.6473H19.0809C18.7204 26.6473 18.4254 26.3523 18.4254 25.9918V25.5985C18.4254 25.2379 18.7204 24.9429 19.0809 24.9429H19.4743C19.7706 24.9429 20.0225 25.1424 20.1029 25.4136C23.2867 24.9226 26.6749 24.7953 29.7706 24.0743C30.254 24.3979 30.4093 24.7326 31.3504 24.7326H32.8402H32.9576H34.4474C35.3885 24.7326 35.5438 24.3979 36.0272 24.0743C39.1229 24.7953 42.5111 24.9226 45.695 25.4136C45.7753 25.1424 46.0272 24.9429 46.3235 24.9429H46.7168C47.0774 24.9429 47.3724 25.2379 47.3724 25.5985V25.9918C47.3724 26.3523 47.0774 26.6473 46.7168 26.6473H46.3235C46.0285 26.6473 45.7776 26.4499 45.696 26.1806ZM34.4338 23.4968H34.2755L34.1739 21.157C33.6692 21.2659 33.185 21.7558 32.9266 21.9153V23.4968H32.9264V21.9153C32.668 21.7558 32.1838 21.2659 31.6792 21.157L31.5775 23.4968H31.3639C31.1745 23.4968 31.0195 23.6517 31.0195 23.8412V23.9057C31.0195 24.0951 31.1745 24.2501 31.3639 24.2501H32.0285C32.1134 24.2523 32.2022 24.2537 32.2952 24.2544C32.5054 24.2557 32.7159 24.2564 32.9264 24.2566V24.2501H32.9266V24.2566C33.1371 24.2564 33.3477 24.2557 33.5578 24.2544C33.6509 24.2537 33.7398 24.2523 33.8249 24.2501H34.4338C34.6233 24.2501 34.7782 24.0951 34.7782 23.9057V23.8412C34.7782 23.6517 34.6233 23.4968 34.4338 23.4968ZM39.7599 42.9564C39.7575 42.9934 39.7559 43.0308 39.7559 43.0682C39.7559 44.9502 42.8212 46.4767 46.601 46.4767C50.3808 46.4767 53.4461 44.9502 53.4461 43.0682C53.4461 43.0308 53.4444 42.9934 53.442 42.9564L46.5874 28.5287L39.7599 42.9564ZM51.9093 42.9564H41.3484L46.6009 30.244L51.9093 42.9564ZM32.9264 19.0134V21.3464C32.6547 21.1774 32.1852 20.7081 31.6917 20.6014L31.7922 18.286C32.2551 18.4354 32.6874 18.8662 32.9264 19.0134ZM32.9266 19.0134V21.3464C33.1983 21.1774 33.6679 20.7081 34.1614 20.6014L34.0608 18.286C33.5979 18.4354 33.1657 18.8662 32.9266 19.0134ZM32.9264 16.1521V18.4753C32.6756 18.3193 32.2559 17.9073 31.8047 17.7609L31.9049 15.4526C32.3293 15.6216 32.704 16.0146 32.9264 16.1521ZM32.9266 16.1521V18.4753C33.1775 18.3193 33.5971 17.9073 34.0483 17.7609L33.9481 15.4526C33.5238 15.6216 33.149 16.0146 32.9266 16.1521ZM32.9264 14.032V15.6419C32.6923 15.4937 32.3341 15.1053 31.9177 14.9464L31.9901 13.2815C32.4249 13.3957 32.6889 13.8895 32.9264 14.032ZM32.9266 14.032V15.6419C33.1607 15.4937 33.5189 15.1053 33.9353 14.9464L33.863 13.2815C33.4282 13.3957 33.1642 13.8895 32.9266 14.032ZM32.9264 11.3224V13.4707C32.6819 13.3122 32.4304 12.8266 32.0028 12.7279L32.0636 11.3286C32.3511 11.3352 32.6389 11.3333 32.9264 11.3224ZM32.9266 11.3224V13.4707C33.1712 13.3122 33.4227 12.8266 33.8502 12.7279L33.7895 11.3286C33.502 11.3352 33.2141 11.3333 32.9266 11.3224ZM12.558 42.972C12.5556 43.009 12.554 43.0464 12.554 43.0837C12.554 44.9659 15.6193 46.4922 19.3991 46.4922C23.1789 46.4922 26.2442 44.9659 26.2442 43.0837C26.2442 43.0464 26.2425 43.009 26.2401 42.972L19.3855 28.5443L12.558 42.972ZM24.7074 42.972H14.1465L19.399 30.2597L24.7074 42.972ZM33.8805 8.58072H31.9726C31.3804 8.58072 30.896 9.08522 30.896 9.70218C30.896 10.3194 31.3804 10.8239 31.9726 10.8239H33.8805C34.4727 10.8239 34.957 10.3194 34.957 9.70218C34.957 9.08522 34.4727 8.58072 33.8805 8.58072ZM31.028 27.1671L29.5077 64.3329L32.9265 73.2347L36.3454 64.3329L34.8251 27.1671H31.028ZM32.9265 58.0425L32.898 58.0432L32.172 28.4908H33.681L32.956 58.0432L32.9265 58.0425Z" fill="#BBA257"/>
<path fill-rule="evenodd" clip-rule="evenodd" d="M63.4833 12.9473L65 17.1973C65 17.1973 57.7269 21.6738 62.2699 43.0011C59.0463 68.4454 36.5928 80.9762 33.0174 82.5858V82.6017L33 82.5938L32.9826 82.6017V82.5858C29.407 80.9762 6.9537 68.4454 3.73022 43.0011C8.27313 21.6738 1 17.1973 1 17.1973L2.51682 12.9473C10.031 13.4206 10.7074 2.92939 10.7074 2.92939L32.9826 1.00298V1L33 1.00161L33.0174 1V1.00298L55.2926 2.92939C55.2926 2.92939 55.969 13.4206 63.4833 12.9473ZM33.0001 81.5618C33.1824 81.4737 33.4338 81.3545 33.6637 81.2447V81.2752C33.8561 81.1728 34.045 81.0693 34.2274 80.9692C35.3554 80.3501 36.458 79.6741 37.5326 78.9667C40.7874 76.8245 43.8623 74.3336 46.6392 71.6014C54.5709 63.7975 59.9199 54.1527 61.3646 43.0379C60.0045 36.5989 58.9742 28.2044 61.0823 21.8219C61.5662 20.3571 62.2626 18.8725 63.24 17.6679C63.432 17.4312 63.6815 17.1503 63.9459 16.9012L62.8588 13.8549C61.2434 13.8278 59.7522 13.3246 58.4676 12.273C57.2461 11.2732 56.3718 9.90827 55.7504 8.47088C55.2351 7.27927 54.8739 6.00042 54.6376 4.72455C54.5795 4.41149 54.5241 4.08352 54.48 3.75567L33.6637 1.95547V1.96682L33 1.90984L32.3364 1.96682V1.95547L11.52 3.75567C11.476 4.08352 11.4205 4.41149 11.3625 4.72455C11.1262 6.00042 10.765 7.27927 10.2498 8.47088C9.62833 9.90827 8.75403 11.2732 7.53238 12.273C6.24791 13.3246 4.75676 13.8278 3.14123 13.8549L2.05405 16.9012C2.31863 17.1503 2.56795 17.4312 2.75996 17.6679C3.73744 18.8725 4.43384 20.3571 4.91771 21.8219C7.02582 28.2044 5.9956 36.5989 4.63548 43.0379C6.0802 54.1527 11.4292 63.7975 19.3608 71.6014C22.1377 74.3336 25.2127 76.8245 28.4674 78.9667C29.542 79.6741 30.6446 80.3501 31.7726 80.9692C31.955 81.0693 32.1439 81.1728 32.3364 81.2752V81.2447C32.5663 81.3545 32.8178 81.4737 33.0001 81.5618Z" fill="#BBA257" stroke="#BBA257" stroke-width="0.288" stroke-miterlimit="22.9256"/>
<path fill-rule="evenodd" clip-rule="evenodd" d="M60.9118 43.0555C60.2256 39.7935 59.7085 36.4625 59.5131 33.1337C59.2918 29.3654 59.4667 25.2893 60.6582 21.6819C61.1608 20.1604 61.8792 18.6361 62.8932 17.3865C63.0619 17.1785 63.2411 16.9751 63.4294 16.7826L62.5401 14.2905C60.9266 14.2042 59.4516 13.6557 58.1847 12.6187C56.9068 11.5725 55.9907 10.1526 55.3404 8.64822C54.8101 7.42176 54.4416 6.1185 54.1984 4.80594C54.1592 4.59456 54.1223 4.38272 54.0891 4.1703L33.0174 2.33663V2.33365L33 2.33514L32.9826 2.33365V2.33663L11.9109 4.1703C11.8778 4.38272 11.8407 4.59456 11.8016 4.80594C11.5585 6.1185 11.19 7.42176 10.6597 8.64822C10.0092 10.1526 9.09332 11.5725 7.81527 12.6187C6.54846 13.6557 5.07347 14.2042 3.46001 14.2905L2.57068 16.7826C2.75902 16.9751 2.93808 17.1785 3.10682 17.3865C4.12087 18.6361 4.83928 20.1604 5.34183 21.6819C6.53333 25.2893 6.70826 29.3654 6.48702 33.1337C6.29157 36.4625 5.77445 39.7935 5.08814 43.0555C6.53355 54.0337 11.8297 63.565 19.6741 71.2831C22.4368 74.0012 25.4756 76.4629 28.713 78.5937C29.7791 79.2955 30.8686 79.9634 31.9875 80.5778C32.2102 80.7 32.4641 80.8109 32.6944 80.9207C32.7098 80.9281 32.8497 80.9807 32.9826 81.0311V81.0445L33.0001 81.0379L33.0174 81.0445V81.0312C33.1505 80.9808 33.2901 80.9281 33.3057 80.9207C33.536 80.8109 33.7899 80.7 34.0124 80.5778C35.1315 79.9634 36.2209 79.2955 37.287 78.5937C40.5245 76.4629 43.5633 74.0012 46.326 71.2831C54.1703 63.565 59.4665 54.0337 60.9118 43.0555ZM33 3.42851L53.1385 5.20922C53.3971 6.53782 53.7782 7.84831 54.3156 9.09128C55.038 10.7622 56.0588 12.3213 57.4775 13.4826C58.7236 14.5027 60.1611 15.1204 61.7271 15.3342L62.1535 16.5291C62.1105 16.58 62.0682 16.6313 62.0263 16.683C60.9234 18.0421 60.1448 19.6765 59.5981 21.3317C58.3561 25.0918 58.1678 29.2709 58.3985 33.1991C58.5938 36.5267 59.1007 39.8354 59.7798 43.097C58.3318 53.7484 53.162 62.9908 45.5429 70.4872C42.8297 73.1567 39.8529 75.5683 36.6732 77.661C35.9704 78.1237 33.9446 79.2976 33.0001 79.8454C32.0555 79.2976 30.0297 78.1237 29.3268 77.661C26.1472 75.5683 23.1704 73.1567 20.4571 70.4872C12.838 62.9908 7.66831 53.7484 6.22015 43.097C6.89935 39.8354 7.40626 36.5267 7.60159 33.1991C7.83224 29.2709 7.64389 25.0918 6.40196 21.3317C5.85527 19.6765 5.07668 18.0421 3.97379 16.683C3.93183 16.6313 3.88942 16.58 3.84655 16.5291L4.27298 15.3342C5.83899 15.1204 7.27649 14.5027 8.52256 13.4826C9.94126 12.3213 10.9621 10.7622 11.6845 9.09128C12.2219 7.84831 12.6029 6.53782 12.8614 5.20922L33 3.42851Z" fill="#BBA257" stroke="#BBA257" stroke-width="0.288" stroke-miterlimit="22.9256"/>
</svg>
