<svg width="40" height="40" viewBox="0 0 40 40" fill="none" xmlns="http://www.w3.org/2000/svg">
<path d="M16.0429 12.2302C15.2281 13.4623 13.3333 15.2315 13.3333 16.6667C13.3333 18.3287 15.1044 21.6756 17.4045 23.9474C19.7046 26.2191 21.6505 27.5 23.3333 27.5C24.479 27.5 25.0547 24.7368 28.1148 24.7368C30.4098 24.7368 33.3333 27.2368 34.1667 30C34.6445 31.5843 32.7732 33.0146 30.6748 34.0104C29.0295 34.7911 27.185 35.0719 25.3723 34.8975C22.0615 34.579 17.3411 33.2705 11.6667 27.8947C5.16412 20.8333 4.83582 16.2073 4.99998 11.6898C5.16413 7.17221 9.16665 5 10.5193 5C11.7742 5 15.7074 8.3974 16.2694 11.0782C16.3531 11.4775 16.2679 11.89 16.0429 12.2302Z" fill="#BBA257"/>
</svg>
